<svg width="21" height="21" viewBox="0 0 21 21" fill="none" xmlns="http://www.w3.org/2000/svg">
<path d="M17.375 18.875L13.0125 14.2375C12.575 14.5875 12.0719 14.8646 11.5031 15.0688C10.9344 15.2729 10.3292 15.375 9.6875 15.375C8.09792 15.375 6.7526 14.8245 5.65156 13.7234C4.55052 12.6224 4 11.2771 4 9.6875C4 8.09792 4.55052 6.7526 5.65156 5.65156C6.7526 4.55052 8.09792 4 9.6875 4C11.2771 4 12.6224 4.55052 13.7234 5.65156C14.8245 6.7526 15.375 8.09792 15.375 9.6875C15.375 10.3292 15.2729 10.9344 15.0688 11.5031C14.8646 12.0719 14.5875 12.575 14.2375 13.0125L18.6 17.65L17.375 18.875ZM9.6875 13.625C10.7812 13.625 11.7109 13.2422 12.4766 12.4766C13.2422 11.7109 13.625 10.7812 13.625 9.6875C13.625 8.59375 13.2422 7.66406 12.4766 6.89844C11.7109 6.13281 10.7812 5.75 9.6875 5.75C8.59375 5.75 7.66406 6.13281 6.89844 6.89844C6.13281 7.66406 5.75 8.59375 5.75 9.6875C5.75 10.7812 6.13281 11.7109 6.89844 12.4766C7.66406 13.2422 8.59375 13.625 9.6875 13.625Z" fill="#011F5B"/>
</svg>
